<svg xmlns="http://www.w3.org/2000/svg" version="1.1" xmlns:xlink="http://www.w3.org/1999/xlink" width="1000" height="1000"><metadata><rdf:RDF xmlns:rdf="http://www.w3.org/1999/02/22-rdf-syntax-ns#" xmlns:dc="http://purl.org/dc/elements/1.1/"><rdf:Description><dc:creator>RealFaviconGenerator</dc:creator><dc:source>https://realfavicongenerator.net</dc:source></rdf:Description></rdf:RDF></metadata><g clip-path="url(#SvgjsClipPath1001)"><rect width="1000" height="1000" fill="#ffffff"></rect><g transform="matrix(3.5,0,0,3.5,150,150)"><svg xmlns="http://www.w3.org/2000/svg" version="1.1" xmlns:xlink="http://www.w3.org/1999/xlink" viewBox="0 0 200 200" width="200" height="200"><rect width="200" height="200" fill="url('#gradient')"></rect><defs><linearGradient id="gradient" gradientTransform="rotate(360 0.5 0.5)"><stop offset="0%" stop-color="#000000"></stop><stop offset="100%" stop-color="#000000"></stop></linearGradient><clipPath id="SvgjsClipPath1001"><rect width="1000" height="1000" x="0" y="0" rx="350" ry="350"></rect></clipPath></defs><g><g fill="#ffffff" transform="matrix(3.69009009009009,0,0,3.69009009009009,22.04391619729566,126.22246385866457)" stroke="#000000" stroke-width="0.5"><path d="M12.95-14.22L12.95 0L9.54 0L4.50-8.85L4.50 0L1.07 0L1.07-14.22L4.50-14.22L9.53-5.37L9.53-14.22L12.95-14.22ZM17.05-7.47L17.08-7.49Q16.50-8.31 16.18-9.05Q15.85-9.79 15.85-10.59L15.85-10.59Q15.85-12.30 16.96-13.36Q18.08-14.42 19.87-14.42L19.87-14.42Q21.48-14.42 22.54-13.44Q23.59-12.46 23.59-11.01L23.59-11.01Q23.59-9.19 21.59-7.78L21.59-7.78L20.85-7.27L23.04-4.76Q23.57-5.83 23.57-7.11L23.57-7.11L26.34-7.11Q26.34-4.23 25.01-2.49L25.01-2.49L27.18 0L23.51 0L22.84-0.75Q22.02-0.26 21.17-0.03Q20.31 0.21 19.24 0.21L19.24 0.21Q17.13 0.21 15.86-0.90Q14.59-2.01 14.59-3.82L14.59-3.82Q14.59-4.80 15.09-5.61Q15.60-6.41 17.05-7.47L17.05-7.47ZM19.45-2.33L19.45-2.33Q20.31-2.33 21.09-2.73L21.09-2.73L18.54-5.64L18.45-5.59Q17.89-4.90 17.89-4.04L17.89-4.04Q17.89-3.33 18.34-2.83Q18.79-2.33 19.45-2.33ZM18.69-10.63L18.69-10.63Q18.69-9.94 19.43-8.96L19.43-8.96L20.09-9.38Q20.54-9.67 20.74-9.98Q20.95-10.29 20.95-10.77L20.95-10.77Q20.95-11.22 20.63-11.55Q20.32-11.88 19.86-11.88L19.86-11.88Q19.32-11.88 19.00-11.54Q18.69-11.19 18.69-10.63ZM37.50 0L36.67-2.66L31.97-2.66L31.15 0L27.49 0L32.71-14.22L35.93-14.22L41.18 0L37.50 0ZM34.32-10.23L32.79-5.30L35.85-5.30L34.32-10.23Z"></path></g></g></svg></g></g></svg>